<svg width="48" height="48" viewBox="0 0 48 48" fill="none" xmlns="http://www.w3.org/2000/svg">
<rect width="48" height="48" rx="24" fill="#ECE9F7"/>
<g clip-path="url(#clip0_1916_4730)">
<path d="M34.9091 17.2351C34.0977 17.591 33.2332 17.8269 32.3318 17.9415C33.2591 17.3878 33.9668 16.5178 34.2995 15.4692C33.435 15.9847 32.4804 16.3487 31.4632 16.5519C30.6422 15.6778 29.4722 15.1365 28.1959 15.1365C25.7195 15.1365 23.7259 17.1465 23.7259 19.6106C23.7259 19.9651 23.7559 20.306 23.8295 20.6306C20.1109 20.4492 16.8204 18.6669 14.61 15.9519C14.2241 16.6215 13.9977 17.3878 13.9977 18.2128C13.9977 19.7619 14.7954 21.1351 15.9845 21.9301C15.2659 21.9165 14.5609 21.7078 13.9636 21.3792C13.9636 21.3928 13.9636 21.4106 13.9636 21.4283C13.9636 23.6019 15.5141 25.4074 17.5472 25.8233C17.1832 25.9228 16.7863 25.9706 16.3745 25.9706C16.0882 25.9706 15.7991 25.9542 15.5277 25.8942C16.1072 27.6656 17.7518 28.9678 19.7072 29.0101C18.1854 30.2006 16.2532 30.9178 14.1613 30.9178C13.7945 30.9178 13.4427 30.9015 13.0909 30.8565C15.0722 32.1342 17.4204 32.8637 19.9527 32.8637C28.1836 32.8637 32.6836 26.0456 32.6836 20.1356C32.6836 19.9378 32.6768 19.7469 32.6672 19.5574C33.555 18.9274 34.3009 18.1406 34.9091 17.2351Z" fill="#4B3F72"/>
</g>
<defs>
<clipPath id="clip0_1916_4730">
<rect width="21.8182" height="21.8182" fill="white" transform="translate(13.0909 13.0908)"/>
</clipPath>
</defs>
</svg>
