<svg width="48" height="48" viewBox="0 0 48 48" fill="none" xmlns="http://www.w3.org/2000/svg">
<rect x="0.00183105" width="48" height="48" rx="24" fill="#ECE9F7"/>
<g clip-path="url(#clip0_2011_130)">
<path d="M34.8896 19.5054C34.8385 18.3461 34.6511 17.5491 34.3825 16.8585C34.1055 16.1255 33.6792 15.4692 33.1208 14.9236C32.5752 14.3695 31.9146 13.9389 31.19 13.6662C30.4954 13.3977 29.7026 13.2102 28.5433 13.1591C27.3754 13.1036 27.0046 13.0908 24.0424 13.0908C21.0801 13.0908 20.7094 13.1036 19.5458 13.1548C18.3865 13.2059 17.5895 13.3935 16.899 13.6619C16.1658 13.9389 15.5095 14.3652 14.9639 14.9236C14.4098 15.4692 13.9794 16.1298 13.7066 16.8544C13.438 17.5491 13.2505 18.3418 13.1994 19.5011C13.144 20.669 13.1312 21.0398 13.1312 24.002C13.1312 26.9643 13.144 27.335 13.1951 28.4987C13.2462 29.6579 13.4338 30.4549 13.7024 31.1455C13.9794 31.8786 14.4098 32.5349 14.9639 33.0805C15.5095 33.6346 16.1701 34.0652 16.8947 34.3379C17.5895 34.6064 18.3821 34.7939 19.5416 34.845C20.705 34.8963 21.076 34.9089 24.0382 34.9089C27.0004 34.9089 27.3712 34.8963 28.5348 34.845C29.6941 34.7939 30.4911 34.6064 31.1815 34.3379C32.6478 33.771 33.8071 32.6117 34.374 31.1455C34.6424 30.4508 34.83 29.6579 34.8812 28.4987C34.9323 27.335 34.9451 26.9643 34.9451 24.002C34.9451 21.0398 34.9408 20.669 34.8896 19.5054ZM32.9249 28.4134C32.8779 29.479 32.6989 30.0544 32.5498 30.438C32.1832 31.3885 31.4288 32.1428 30.4783 32.5095C30.0947 32.6586 29.5151 32.8376 28.4537 32.8844C27.3029 32.9357 26.9578 32.9483 24.0467 32.9483C21.1356 32.9483 20.7861 32.9357 19.6395 32.8844C18.5739 32.8376 17.9986 32.6586 17.615 32.5095C17.142 32.3346 16.7114 32.0576 16.3619 31.6953C15.9997 31.3415 15.7226 30.9153 15.5478 30.4423C15.3986 30.0587 15.2196 29.479 15.1729 28.4177C15.1216 27.267 15.1089 26.9216 15.1089 24.0105C15.1089 21.0994 15.1216 20.75 15.1729 19.6035C15.2196 18.5379 15.3986 17.9625 15.5478 17.5789C15.7226 17.1058 15.9997 16.6754 16.3663 16.3258C16.7199 15.9635 17.1461 15.6864 17.6193 15.5118C18.0029 15.3626 18.5826 15.1836 19.6438 15.1367C20.7946 15.0856 21.1399 15.0727 24.0509 15.0727C26.9663 15.0727 27.3114 15.0856 28.4581 15.1367C29.5236 15.1836 30.099 15.3626 30.4826 15.5118C30.9556 15.6864 31.3862 15.9635 31.7356 16.3258C32.0979 16.6796 32.375 17.1058 32.5498 17.5789C32.6989 17.9625 32.8779 18.5421 32.9249 19.6035C32.976 20.7543 32.9888 21.0994 32.9888 24.0105C32.9888 26.9216 32.976 27.2626 32.9249 28.4134Z" fill="#443967"/>
<path d="M24.0423 18.3972C20.948 18.3972 18.4375 20.9076 18.4375 24.002C18.4375 27.0964 20.948 29.6068 24.0423 29.6068C27.1367 29.6068 29.6471 27.0964 29.6471 24.002C29.6471 20.9076 27.1367 18.3972 24.0423 18.3972ZM24.0423 27.6377C22.0349 27.6377 20.4066 26.0096 20.4066 24.002C20.4066 21.9944 22.0349 20.3663 24.0423 20.3663C26.0498 20.3663 27.678 21.9944 27.678 24.002C27.678 26.0096 26.0498 27.6377 24.0423 27.6377Z" fill="#443967"/>
<path d="M31.1775 18.1757C31.1775 18.8982 30.5916 19.4841 29.8688 19.4841C29.1463 19.4841 28.5604 18.8982 28.5604 18.1757C28.5604 17.4529 29.1463 16.8672 29.8688 16.8672C30.5916 16.8672 31.1775 17.4529 31.1775 18.1757Z" fill="#443967"/>
</g>
<defs>
<clipPath id="clip0_2011_130">
<rect width="21.8182" height="21.8182" fill="white" transform="translate(13.0927 13.0908)"/>
</clipPath>
</defs>
</svg>
