<svg width="26" height="23" viewBox="0 0 26 23" fill="none" xmlns="http://www.w3.org/2000/svg">
<path d="M4.1543 21.2309V10.6154L13.0005 1.76917L21.8468 10.6154V21.2309C21.8468 22.208 21.0547 23.0001 20.0775 23.0001H5.92354C4.94642 23.0001 4.1543 22.208 4.1543 21.2309Z" fill="#FFEFCE"/>
<path fill-rule="evenodd" clip-rule="evenodd" d="M11.7489 0.518196C12.4398 -0.172732 13.5601 -0.172732 14.251 0.518196L24.8665 11.1337C25.5574 11.8246 25.5574 12.9448 24.8665 13.6358C24.1756 14.3267 23.0553 14.3267 22.3644 13.6358L13 4.27133L3.63553 13.6358C2.94459 14.3267 1.82437 14.3267 1.13343 13.6358C0.442501 12.9448 0.442501 11.8246 1.13343 11.1337L11.7489 0.518196Z" fill="#997834"/>
</svg>
