<svg width="16" height="15" viewBox="0 0 16 15" fill="none" xmlns="http://www.w3.org/2000/svg">
<path fill-rule="evenodd" clip-rule="evenodd" d="M1.03578 0.5C0.739876 0.5 0.5 0.727936 0.5 1.00911V11.1912C0.5 11.4725 0.739876 11.7003 1.03578 11.7003H6.13214C5.95445 11.2227 5.85776 10.7086 5.85776 10.173C5.85776 8.87852 6.42273 7.70937 7.33115 6.87611V1.82619C7.02781 1.05171 6.24271 0.5 5.32199 0.5H1.03578ZM8.67059 1.82618V6.00655C9.28222 5.7398 9.96271 5.59108 10.6797 5.59108C13.1589 5.59108 15.2011 7.36886 15.4714 9.65599H15.5017V1.00911C15.5017 0.727936 15.2618 0.5 14.966 0.5H10.6797C9.75904 0.5 8.97392 1.05169 8.67059 1.82618Z" fill="#FFC857"/>
<path fill-rule="evenodd" clip-rule="evenodd" d="M8.80459 10.173C8.80459 9.18888 9.64416 8.39109 10.6798 8.39109C11.7155 8.39109 12.555 9.18888 12.555 10.173C12.555 11.157 11.7155 11.9548 10.6798 11.9548C9.64416 11.9548 8.80459 11.157 8.80459 10.173ZM10.6798 6.86377C8.75645 6.86377 7.19727 8.34536 7.19727 10.173C7.19727 12.0006 8.75645 13.4821 10.6798 13.4821C11.3503 13.4821 11.9766 13.3021 12.508 12.9901L13.8615 14.2762C14.1753 14.5745 14.6842 14.5745 14.9981 14.2762C15.3119 13.978 15.3119 13.4945 14.9981 13.1962L13.6445 11.9101C13.9729 11.4052 14.1624 10.8101 14.1624 10.173C14.1624 8.34536 12.6031 6.86377 10.6798 6.86377Z" fill="#70619E"/>
</svg>
