<svg width="14" height="15" viewBox="0 0 14 15" fill="none" xmlns="http://www.w3.org/2000/svg">
<path fill-rule="evenodd" clip-rule="evenodd" d="M5.57695 2.18908C7.23449 1.74494 8.91903 2.1074 10.2127 3.03751L9.60356 3.64663C9.28858 3.96161 9.51166 4.50018 9.95712 4.50018H12.2501C12.5262 4.50018 12.7501 4.27632 12.7501 4.00018V1.70729C12.7501 1.26184 12.2115 1.03875 11.8965 1.35374L11.2843 1.96596C9.61567 0.676234 7.38469 0.151783 5.18873 0.740189C1.62992 1.69377 -0.549251 5.22464 0.120633 8.787C0.197182 9.19408 0.58924 9.46203 0.996319 9.38548C1.40339 9.30893 1.67134 8.91687 1.59479 8.50979C1.06874 5.71231 2.78152 2.93811 5.57695 2.18908ZM13.8798 6.21334C13.8032 5.80626 13.4112 5.53832 13.0041 5.61486C12.597 5.69141 12.3291 6.08347 12.4056 6.49055C12.9317 9.28804 11.2189 12.0623 8.42342 12.8113C6.76581 13.2555 5.08119 12.8929 3.78752 11.9627L4.39651 11.3538C4.71149 11.0388 4.48841 10.5002 4.04295 10.5002H1.75006C1.47392 10.5002 1.25006 10.7241 1.25006 11.0002V13.2931C1.25006 13.7385 1.78863 13.9616 2.10361 13.6466L2.71597 13.0343C4.38455 14.3241 6.61561 14.8486 8.81165 14.2602C12.3705 13.3066 14.5497 9.7757 13.8798 6.21334Z" fill="#FFC857"/>
<path fill-rule="evenodd" clip-rule="evenodd" d="M7.80522 4.52667C7.60749 3.65976 6.37072 3.66517 6.18058 4.53377L6.17269 4.56994L6.15698 4.64149C5.92098 5.69823 5.07117 6.50915 4.00367 6.69486C3.10033 6.85202 3.10034 8.14879 4.00367 8.30595C5.0749 8.49231 5.92691 9.30824 6.15943 10.3704L6.18058 10.467C6.37072 11.3356 7.60749 11.341 7.80522 10.4741L7.8309 10.3615C8.07225 9.30337 8.9253 8.49357 9.99458 8.30754C10.8997 8.15007 10.8997 6.85073 9.99458 6.69327C8.93097 6.50823 8.0813 5.706 7.8348 4.6561C7.82805 4.62736 7.82178 4.59968 7.81503 4.56991L7.80522 4.52667Z" fill="#70619E"/>
</svg>
